<svg xmlns="http://www.w3.org/2000/svg" xmlns:xlink="http://www.w3.org/1999/xlink" viewBox="0 0 419 307"><defs><linearGradient id="b" x1="0" y1="153.5" x2="149" y2="153.5" gradientUnits="userSpaceOnUse"><stop offset="0" stop-color="#fff"/><stop offset="1" stop-color="#15adff"/></linearGradient><linearGradient id="a" x1="127.5" y1="162" x2="234.1" y2="162" gradientUnits="userSpaceOnUse"><stop offset="0" stop-color="#cce0f4"/><stop offset=".1" stop-color="#c2dcf2"/><stop offset=".2" stop-color="#a9d2ee"/><stop offset=".3" stop-color="#7fc2e7"/><stop offset=".5" stop-color="#46abdd"/><stop offset=".6" stop-color="#1e9cd7"/><stop offset=".9" stop-color="#0075be"/><stop offset="1" stop-color="#005b97"/></linearGradient><linearGradient id="c" x1="182.9" y1="165" x2="297.1" y2="165" xlink:href="#a"/><linearGradient id="d" x1="270" y1="153.5" x2="419" y2="153.5" xlink:href="#a"/></defs><path d="M149 307c-32 0-60-21-70-52L0 0c32 0 60 21 70 52l79 255Z" fill="url(#b)"/><path d="m154 301 79-244c5-17-7-34-24-34-11 0-21 7-25 18l-57 173" fill="url(#a)"/><path d="m270 307-62-178-24-72c-5-17 7-34 24-34 11 0 21 7 25 18 20 64 43 112 64 179" fill="url(#c)"/><path d="M270 307c32 0 60-21 70-52L419 0c-32 0-60 21-70 52l-53 170-26 85Z" fill="url(#d)"/></svg>