<svg data-name="l 1" xmlns="http://www.w3.org/2000/svg" xmlns:xlink="http://www.w3.org/1999/xlink" viewBox="0 0 701 198"><defs><linearGradient id="a" data-name="空" x1="231.4" y1="121.9" x2="344.7" y2="121.9" gradientUnits="userSpaceOnUse"><stop offset="0" stop-color="#cce0f4"/><stop offset=".1" stop-color="#c2dcf2"/><stop offset=".2" stop-color="#a9d2ee"/><stop offset=".3" stop-color="#7fc2e7"/><stop offset=".5" stop-color="#46abdd"/><stop offset=".6" stop-color="#1e9cd7"/><stop offset=".9" stop-color="#0075be"/><stop offset="1" stop-color="#005b97"/></linearGradient><linearGradient id="d" data-name="空" x1="351.7" y1="102" x2="481.1" y2="102" xlink:href="#a"/><linearGradient id="e" data-name="空" x1="490.7" x2="596.6" xlink:href="#a"/><linearGradient id="f" data-name="空" x1="596.6" x2="701.3" xlink:href="#a"/><linearGradient id="g" data-name="gradient 100" x1="10" y1="94" x2="91.1" y2="94" gradientUnits="userSpaceOnUse"><stop offset="0" stop-color="#fff"/><stop offset="1" stop-color="#15adff"/></linearGradient><linearGradient id="b" data-name="gradient 492" x1="79.4" y1="98.7" x2="137.4" y2="98.7" gradientUnits="userSpaceOnUse"><stop offset="0" stop-color="#cce0f4"/><stop offset=".1" stop-color="#c2dcf2"/><stop offset=".2" stop-color="#a9d2ee"/><stop offset=".3" stop-color="#7fc2e7"/><stop offset=".5" stop-color="#46abdd"/><stop offset=".6" stop-color="#1e9cd7"/><stop offset=".9" stop-color="#0075be"/><stop offset="1" stop-color="#005b97"/></linearGradient><linearGradient id="j" data-name="gradient 492" x1="109.5" y1="100.3" x2="171.7" y2="100.3" xlink:href="#b"/><linearGradient id="l" data-name="gradient 492" x1="156.9" y1="94" x2="238" y2="94" xlink:href="#b"/><filter id="c" filterUnits="userSpaceOnUse"><feOffset dx="5" dy="5"/><feGaussianBlur result="blur" stdDeviation="5"/><feFlood flood-color="#000" flood-opacity=".3"/><feComposite in2="blur" operator="in"/><feComposite in="SourceGraphic"/></filter><filter id="h" filterUnits="userSpaceOnUse"><feOffset dx="5" dy="5"/><feGaussianBlur result="blur-2" stdDeviation="5"/><feFlood flood-color="#000" flood-opacity=".3"/><feComposite in2="blur-2" operator="in"/><feComposite in="SourceGraphic"/></filter><filter id="i" filterUnits="userSpaceOnUse"><feOffset dx="5" dy="5"/><feGaussianBlur result="blur-3" stdDeviation="5"/><feFlood flood-color="#000" flood-opacity=".3"/><feComposite in2="blur-3" operator="in"/><feComposite in="SourceGraphic"/></filter><filter id="k" filterUnits="userSpaceOnUse"><feOffset dx="5" dy="5"/><feGaussianBlur result="blur-4" stdDeviation="5"/><feFlood flood-color="#000" flood-opacity=".3"/><feComposite in2="blur-4" operator="in"/><feComposite in="SourceGraphic"/></filter><filter id="m" filterUnits="userSpaceOnUse"><feOffset dx="5" dy="5"/><feGaussianBlur result="blur-5" stdDeviation="5"/><feFlood flood-color="#000" flood-opacity=".3"/><feComposite in2="blur-5" operator="in"/><feComposite in="SourceGraphic"/></filter></defs><g filter="url(#c)"><path d="M328 158h15l-3 22h-45l3-17c-9 10-18 18-40 18-23 0-29-9-26-30l10-58c4-21 14-30 37-30 22 0 28 7 33 18l3-17h30l-17 94Zm-18-61c-8-5-15-7-29-7-7 0-9 1-9 4l-10 55c-1 4 0 5 8 5 14 0 21-2 31-7l9-50Z" fill="url(#a)"/><path d="m480 93-10 58c-4 21-13 30-37 30-21 0-27-8-33-18l-3 17h-45l4-22h15l20-113h-16l4-22h46l-11 58c10-10 18-18 40-18 23 0 30 9 26 30Zm-37-3c-14 0-22 2-31 7l-9 50c8 5 14 7 29 7 7 0 8-1 9-7l9-50c1-6 0-7-7-7Z" fill="url(#d)"/><path d="m596 92-7 38h-64l-4 21c0 3 0 5 4 5h26c3 0 4-2 5-5l1-9h30l-2 10c-3 19-13 28-32 28h-39c-19 0-26-9-23-28l11-60c3-20 13-28 32-28h39c19 0 26 9 23 28Zm-34-4h-25c-4 0-5 1-5 5l-3 17h34l3-17c1-4 0-5-4-5Z" fill="url(#e)"/><path d="m701 64-5 28h-12c-11 0-18 2-28 7l-10 59h19l-4 22h-64l3-22h16l13-72h-16l4-22h45l-3 18c9-11 17-18 35-18h7Z" fill="url(#f)"/></g><path d="M91 178c-17 0-33-12-38-28L10 11c17 0 33 11 38 28l43 139" fill="url(#g)" filter="url(#h)"/><path d="m94 174 43-133c3-9-4-18-13-18-6 0-12 4-14 10l-31 94" fill="url(#b)" filter="url(#i)"/><path d="m157 178-34-98-13-39c-3-9 4-18 13-18 6 0 12 4 14 10 11 35 23 61 35 97" fill="url(#j)" filter="url(#k)"/><path d="M157 178c17 0 33-12 38-28l43-139c-17 0-33 11-38 28l-29 92-14 47" fill="url(#l)" filter="url(#m)"/></svg>